<svg width="131" height="25" viewBox="0 0 131 25" fill="none" xmlns="http://www.w3.org/2000/svg">
<path d="M18.6914 0.984375C18.6914 1.11719 18.6523 1.24219 18.5742 1.35938C18.5039 1.46875 18.4023 1.54297 18.2695 1.58203C17.9961 1.65234 17.7266 1.71875 17.4609 1.78125C17.1953 1.83594 16.9258 1.88281 16.6523 1.92188C16.8555 3.15625 16.9961 4.35547 17.0742 5.51953C17.1602 6.68359 17.2031 7.83594 17.2031 8.97656C17.2031 10.5234 17.1406 12.0156 17.0156 13.4531C16.8984 14.8906 16.7539 16.3008 16.582 17.6836C16.5352 17.8555 16.4531 17.9844 16.3359 18.0703C16.2266 18.1641 16.1016 18.2109 15.9609 18.2109C15.6953 18.2109 15.5117 18.0859 15.4102 17.8359C15.1914 17.3047 14.8906 16.6523 14.5078 15.8789C14.1328 15.0977 13.707 14.2617 13.2305 13.3711C12.7617 12.4727 12.2617 11.543 11.7305 10.582C11.207 9.62109 10.6914 8.69141 10.1836 7.79297C9.68359 6.89453 9.21094 6.05469 8.76562 5.27344C8.32031 4.48438 7.94141 3.81641 7.62891 3.26953L7.27734 16.8516C7.57422 16.875 7.875 16.8984 8.17969 16.9219C8.49219 16.9453 8.80469 16.9688 9.11719 16.9922C9.27344 17.0156 9.40234 17.0859 9.50391 17.2031C9.61328 17.3203 9.66797 17.457 9.66797 17.6133C9.66797 17.793 9.60156 17.9375 9.46875 18.0469C9.33594 18.1562 9.19531 18.2109 9.04688 18.2109H9C8.375 18.1484 7.75 18.1016 7.125 18.0703C6.50781 18.0391 5.88672 18.0234 5.26172 18.0234C4.64453 18.0234 4.03125 18.0391 3.42188 18.0703C2.82031 18.1016 2.21484 18.1484 1.60547 18.2109H1.55859C1.38672 18.2109 1.23828 18.1484 1.11328 18.0234C0.996094 17.9062 0.9375 17.7695 0.9375 17.6133C0.9375 17.457 0.988281 17.3203 1.08984 17.2031C1.19922 17.0859 1.33203 17.0156 1.48828 16.9922C1.77734 16.9688 2.06641 16.9453 2.35547 16.9219C2.65234 16.8984 2.94531 16.875 3.23438 16.8516L3.50391 2.0625C2.83203 2.01562 2.15234 1.94531 1.46484 1.85156C1.30859 1.82812 1.17969 1.75781 1.07812 1.64062C0.984375 1.51562 0.9375 1.375 0.9375 1.21875C0.9375 1.03125 1.00781 0.886719 1.14844 0.785156C1.28906 0.675781 1.42578 0.621094 1.55859 0.621094H1.62891C2.46484 0.730469 3.28125 0.816406 4.07812 0.878906C4.88281 0.933594 5.68359 0.960938 6.48047 0.960938H7.34766C7.35547 0.960938 7.37891 0.964844 7.41797 0.972656C7.45703 0.972656 7.5 0.980469 7.54688 0.996094C7.60156 1.01172 7.65625 1.03906 7.71094 1.07812C7.77344 1.11719 7.82812 1.17188 7.875 1.24219C7.90625 1.29688 8.00781 1.47266 8.17969 1.76953C8.35156 2.06641 8.57422 2.45312 8.84766 2.92969C9.12109 3.40625 9.43359 3.95703 9.78516 4.58203C10.1445 5.20703 10.5234 5.875 10.9219 6.58594C11.3281 7.29688 11.7422 8.03516 12.1641 8.80078C12.5859 9.56641 13 10.332 13.4062 11.0977C13.8203 11.8555 14.2148 12.5977 14.5898 13.3242C14.9727 14.043 15.3164 14.7148 15.6211 15.3398C15.7227 14.3164 15.8086 13.2773 15.8789 12.2227C15.9492 11.168 15.9844 10.0859 15.9844 8.97656C15.9844 7.86719 15.9414 6.73438 15.8555 5.57812C15.7695 4.42188 15.6289 3.23438 15.4336 2.01562C15.332 2.03125 15.2344 2.03906 15.1406 2.03906C15.0469 2.03906 14.9453 2.03906 14.8359 2.03906C14.375 2.03906 13.8945 2.01562 13.3945 1.96875C13.2383 1.95312 13.1055 1.88672 12.9961 1.76953C12.8945 1.64453 12.8438 1.50391 12.8438 1.34766C12.8438 1.17578 12.9062 1.03125 13.0312 0.914062C13.1641 0.796875 13.3086 0.738281 13.4648 0.738281H13.5352C13.7539 0.769531 13.9688 0.792969 14.1797 0.808594C14.3984 0.816406 14.6172 0.820312 14.8359 0.820312C15.375 0.820312 15.9023 0.785156 16.418 0.714844C16.9336 0.644531 17.4375 0.542969 17.9297 0.410156C17.9609 0.394531 18.0156 0.386719 18.0938 0.386719C18.2656 0.386719 18.4062 0.449219 18.5156 0.574219C18.6328 0.691406 18.6914 0.828125 18.6914 0.984375ZM28.3594 13.8984C28.3438 13.7656 28.332 13.6289 28.3242 13.4883C28.3164 13.3477 28.3125 13.2031 28.3125 13.0547H27.8789C27.5664 13.0547 27.1953 13.0781 26.7656 13.125C26.3438 13.1719 25.9062 13.2461 25.4531 13.3477C25 13.4492 24.5508 13.5859 24.1055 13.7578C23.6602 13.9219 23.2617 14.125 22.9102 14.3672C22.5586 14.6016 22.2734 14.8789 22.0547 15.1992C21.8438 15.5195 21.7383 15.8867 21.7383 16.3008C21.7383 16.5195 21.7891 16.707 21.8906 16.8633C22 17.0195 22.1328 17.1484 22.2891 17.25C22.4531 17.3438 22.6328 17.4141 22.8281 17.4609C23.0234 17.5 23.2109 17.5195 23.3906 17.5195C23.9453 17.5195 24.4688 17.4141 24.9609 17.2031C25.4609 16.9844 25.9219 16.7031 26.3438 16.3594C26.7656 16.0078 27.1445 15.6172 27.4805 15.1875C27.8164 14.7578 28.1094 14.3281 28.3594 13.8984ZM33.9727 17.9531H33.9258C33.793 17.9375 33.6562 17.9297 33.5156 17.9297C33.375 17.9297 33.2383 17.9297 33.1055 17.9297C32.3711 17.9297 31.6641 17.9766 30.9844 18.0703C30.3125 18.1641 29.6367 18.3086 28.957 18.5039C28.9336 18.5039 28.9102 18.5078 28.8867 18.5156C28.8633 18.5234 28.832 18.5273 28.793 18.5273C28.6133 18.5273 28.4648 18.457 28.3477 18.3164C28.2383 18.1836 28.1836 18.0469 28.1836 17.9062V17.8125C28.1836 17.7969 28.2031 17.6406 28.2422 17.3438C28.2812 17.0391 28.3203 16.6172 28.3594 16.0781C28.0234 16.4531 27.6641 16.8047 27.2812 17.1328C26.9062 17.4531 26.5078 17.7344 26.0859 17.9766C25.6719 18.2109 25.2422 18.3945 24.7969 18.5273C24.3516 18.668 23.8906 18.7383 23.4141 18.7383C23.0391 18.7383 22.6758 18.6797 22.3242 18.5625C21.9727 18.4531 21.6602 18.293 21.3867 18.082C21.1211 17.8711 20.9062 17.6172 20.7422 17.3203C20.5859 17.0156 20.5078 16.6758 20.5078 16.3008C20.5078 15.7148 20.6328 15.1992 20.8828 14.7539C21.1406 14.3086 21.4766 13.9219 21.8906 13.5938C22.3047 13.2578 22.7734 12.9805 23.2969 12.7617C23.8281 12.5352 24.3672 12.3555 24.9141 12.2227C25.4609 12.082 25.9922 11.9844 26.5078 11.9297C27.0234 11.8672 27.4805 11.8359 27.8789 11.8359H28.1602C28.1602 11.3594 28.0742 10.8945 27.9023 10.4414C27.7383 9.98828 27.5039 9.58594 27.1992 9.23438C26.9023 8.88281 26.5469 8.60156 26.1328 8.39062C25.7188 8.17188 25.2617 8.0625 24.7617 8.0625C24.3945 8.0625 24.0352 8.16797 23.6836 8.37891C23.332 8.58203 23.0195 8.84375 22.7461 9.16406C22.4727 9.48438 22.25 9.84375 22.0781 10.2422C21.9141 10.6406 21.832 11.0273 21.832 11.4023C21.832 11.5586 21.7656 11.6914 21.6328 11.8008C21.5078 11.9023 21.3672 11.9531 21.2109 11.9531C21.0391 11.9531 20.8906 11.8906 20.7656 11.7656C20.6406 11.6328 20.5781 11.4883 20.5781 11.332C20.5781 10.957 20.6445 10.5664 20.7773 10.1602C20.9102 9.74609 21.1016 9.34375 21.3516 8.95312C21.6094 8.55469 21.918 8.17969 22.2773 7.82812C22.6445 7.47656 23.0586 7.16797 23.5195 6.90234C23.9883 6.62891 24.5 6.41406 25.0547 6.25781C25.6094 6.10156 26.1992 6.02344 26.8242 6.02344C27.6992 6.02344 28.4453 6.16016 29.0625 6.43359C29.6875 6.70703 30.207 7.07812 30.6211 7.54688C31.043 8.01562 31.375 8.55859 31.6172 9.17578C31.8594 9.79297 32.043 10.4453 32.168 11.1328C32.293 11.8203 32.3711 12.5195 32.4023 13.2305C32.4414 13.9414 32.4609 14.6211 32.4609 15.2695C32.4609 15.5977 32.457 15.8789 32.4492 16.1133C32.4414 16.3477 32.4375 16.543 32.4375 16.6992C32.5547 16.6992 32.6719 16.6953 32.7891 16.6875C32.9141 16.6797 33.0352 16.6758 33.1523 16.6758C33.2852 16.6758 33.4219 16.6797 33.5625 16.6875C33.7109 16.6953 33.8555 16.6992 33.9961 16.6992C34.168 16.7148 34.3047 16.7812 34.4062 16.8984C34.5156 17.0156 34.5703 17.1602 34.5703 17.332C34.5703 17.4961 34.5117 17.6406 34.3945 17.7656C34.2852 17.8906 34.1445 17.9531 33.9727 17.9531ZM48.1641 11.707C48.1562 11.168 48.0742 10.6367 47.918 10.1133C47.7617 9.58203 47.5312 9.10938 47.2266 8.69531C46.9297 8.28125 46.5625 7.94531 46.125 7.6875C45.6953 7.42969 45.1992 7.30078 44.6367 7.30078C44.2227 7.30078 43.832 7.39062 43.4648 7.57031C43.1055 7.75 42.7734 7.98828 42.4688 8.28516C42.1719 8.58203 41.9062 8.92188 41.6719 9.30469C41.4375 9.6875 41.2383 10.0859 41.0742 10.5C40.918 10.9141 40.7969 11.3281 40.7109 11.7422C40.625 12.1562 40.582 12.5391 40.582 12.8906V15.2695C40.6758 15.6367 40.8398 15.9531 41.0742 16.2188C41.3086 16.4766 41.582 16.6953 41.8945 16.875C42.207 17.0469 42.543 17.1758 42.9023 17.2617C43.2617 17.3398 43.6094 17.3789 43.9453 17.3789C44.4609 17.3789 44.9219 17.293 45.3281 17.1211C45.7422 16.9492 46.1055 16.7188 46.418 16.4297C46.7305 16.1406 46.9961 15.8086 47.2148 15.4336C47.4336 15.0508 47.6133 14.6484 47.7539 14.2266C47.8945 13.8047 47.9961 13.3789 48.0586 12.9492C48.1289 12.5117 48.1641 12.0977 48.1641 11.707ZM49.418 11.707C49.418 12.2695 49.3633 12.832 49.2539 13.3945C49.1523 13.9492 48.9961 14.4844 48.7852 15C48.582 15.5078 48.3281 15.9844 48.0234 16.4297C47.7188 16.8672 47.3633 17.25 46.957 17.5781C46.5508 17.8984 46.0938 18.1523 45.5859 18.3398C45.0859 18.5273 44.5391 18.6211 43.9453 18.6211C43.3125 18.6211 42.7031 18.5195 42.1172 18.3164C41.5391 18.1211 41.0273 17.832 40.582 17.4492V22.9688C40.7617 22.9844 40.9453 23 41.1328 23.0156C41.3203 23.0391 41.5039 23.0625 41.6836 23.0859C41.8398 23.1094 41.9648 23.1797 42.0586 23.2969C42.1602 23.4141 42.2109 23.543 42.2109 23.6836C42.2109 23.8867 42.1406 24.043 42 24.1523C41.8594 24.2617 41.7227 24.3164 41.5898 24.3164H41.5195C41.0586 24.2539 40.5859 24.1992 40.1016 24.1523C39.6172 24.1133 39.1055 24.0938 38.5664 24.0938C38.0742 24.0938 37.5586 24.1133 37.0195 24.1523C36.4883 24.1992 35.9141 24.2852 35.2969 24.4102H35.2031C35.0234 24.4102 34.875 24.3477 34.7578 24.2227C34.6406 24.1055 34.582 23.9688 34.582 23.8125C34.582 23.6641 34.625 23.5312 34.7109 23.4141C34.8047 23.3047 34.9297 23.2344 35.0859 23.2031C35.5547 23.1094 35.9961 23.0391 36.4102 22.9922V7.55859C35.9883 7.53516 35.6406 7.50781 35.3672 7.47656C35.0938 7.4375 34.9453 7.41797 34.9219 7.41797C34.7656 7.39453 34.6367 7.32422 34.5352 7.20703C34.4336 7.08984 34.3828 6.96094 34.3828 6.82031C34.3828 6.61719 34.4531 6.46094 34.5938 6.35156C34.7422 6.24219 34.8828 6.1875 35.0156 6.1875H35.0859C35.0938 6.1875 35.1758 6.19922 35.332 6.22266C35.4883 6.23828 35.6914 6.26172 35.9414 6.29297C36.1992 6.31641 36.4922 6.33984 36.8203 6.36328C37.1484 6.37891 37.4883 6.38672 37.8398 6.38672C38.1836 6.38672 38.5273 6.375 38.8711 6.35156C39.2148 6.32031 39.5352 6.27344 39.832 6.21094C39.8633 6.19531 39.9062 6.1875 39.9609 6.1875C40.1406 6.1875 40.2891 6.25391 40.4062 6.38672C40.5234 6.51953 40.582 6.66406 40.582 6.82031V8.73047C41.0508 7.91016 41.6289 7.26172 42.3164 6.78516C43.0117 6.30859 43.7852 6.07031 44.6367 6.07031C45.4023 6.07031 46.0781 6.23828 46.6641 6.57422C47.25 6.91016 47.7422 7.34766 48.1406 7.88672C48.5469 8.42578 48.8555 9.03125 49.0664 9.70312C49.2773 10.375 49.3945 11.043 49.418 11.707ZM61.957 12.1875C61.668 12.1875 61.3945 12.1328 61.1367 12.0234C60.8867 11.9141 60.668 11.7656 60.4805 11.5781C60.293 11.3906 60.1445 11.1719 60.0352 10.9219C59.9258 10.6641 59.8711 10.3906 59.8711 10.1016C59.8711 9.8125 59.9258 9.54297 60.0352 9.29297C60.1445 9.03516 60.293 8.8125 60.4805 8.625C60.668 8.42969 60.8867 8.27734 61.1367 8.16797C61.3945 8.05078 61.668 7.99219 61.957 7.99219C61.9961 7.99219 62.0312 7.99609 62.0625 8.00391C62.1016 8.01172 62.1406 8.01562 62.1797 8.01562C61.9766 7.85938 61.7383 7.74219 61.4648 7.66406C61.1992 7.57812 60.8906 7.53516 60.5391 7.53516C60.0938 7.53516 59.707 7.62891 59.3789 7.81641C59.0508 7.99609 58.7695 8.22656 58.5352 8.50781C58.3086 8.78125 58.125 9.08203 57.9844 9.41016C57.8438 9.73047 57.7305 10.0352 57.6445 10.3242C57.5664 10.6055 57.5117 10.8477 57.4805 11.0508C57.457 11.2539 57.4453 11.3711 57.4453 11.4023L57.4219 16.6055C57.6953 16.6289 57.9688 16.6641 58.2422 16.7109C58.5234 16.7578 58.8086 16.8047 59.0977 16.8516C59.2461 16.8906 59.3672 16.9688 59.4609 17.0859C59.5547 17.1953 59.6016 17.3242 59.6016 17.4727C59.6016 17.6445 59.5352 17.7891 59.4023 17.9062C59.2695 18.0156 59.1289 18.0703 58.9805 18.0703H58.8633C58.2305 17.9531 57.6289 17.8633 57.0586 17.8008C56.4883 17.7383 55.9219 17.707 55.3594 17.707C54.7969 17.707 54.2344 17.7383 53.6719 17.8008C53.1094 17.8633 52.5117 17.9531 51.8789 18.0703H51.7617C51.582 18.0703 51.4375 18.0117 51.3281 17.8945C51.2188 17.7695 51.1641 17.6289 51.1641 17.4727C51.1641 17.3242 51.207 17.1953 51.293 17.0859C51.3789 16.9688 51.4961 16.8906 51.6445 16.8516C51.918 16.8047 52.1914 16.7578 52.4648 16.7109C52.7383 16.6641 53.0078 16.6289 53.2734 16.6055V7.875C52.7812 7.85156 52.3672 7.82031 52.0312 7.78125C51.6953 7.74219 51.5078 7.71484 51.4688 7.69922C51.3125 7.68359 51.1836 7.62109 51.082 7.51172C50.9883 7.39453 50.9414 7.25781 50.9414 7.10156C50.9414 6.90625 51.0078 6.75391 51.1406 6.64453C51.2812 6.53516 51.4219 6.48047 51.5625 6.48047H51.6445C51.6523 6.48828 51.7422 6.50391 51.9141 6.52734C52.0859 6.54297 52.3086 6.5625 52.582 6.58594C52.8555 6.60938 53.168 6.62891 53.5195 6.64453C53.8789 6.66016 54.2422 6.66797 54.6094 6.66797C54.9844 6.66797 55.3516 6.65625 55.7109 6.63281C56.0703 6.60938 56.4023 6.56641 56.707 6.50391C56.7227 6.48828 56.7617 6.48047 56.8242 6.48047C57.0039 6.48047 57.1523 6.54688 57.2695 6.67969C57.3867 6.80469 57.4453 6.94531 57.4453 7.10156V7.94531C57.7812 7.47656 58.2031 7.08984 58.7109 6.78516C59.2266 6.47266 59.8359 6.31641 60.5391 6.31641C61.0703 6.33203 61.5547 6.42578 61.9922 6.59766C62.4297 6.76172 62.8047 6.99219 63.1172 7.28906C63.4375 7.57812 63.6836 7.92969 63.8555 8.34375C64.0352 8.75 64.125 9.20703 64.125 9.71484C64.125 10.0352 64.0742 10.3438 63.9727 10.6406C63.8711 10.9375 63.7266 11.2031 63.5391 11.4375C63.3516 11.6641 63.1211 11.8477 62.8477 11.9883C62.582 12.1211 62.2852 12.1875 61.957 12.1875ZM75.9727 11.8125V11.6133C75.9727 11.0273 75.9102 10.4844 75.7852 9.98438C75.6602 9.48438 75.4609 9.04297 75.1875 8.66016C74.9219 8.26953 74.5781 7.94922 74.1562 7.69922C73.7344 7.44922 73.2266 7.28125 72.6328 7.19531C72.2188 7.24219 71.8594 7.35547 71.5547 7.53516C71.25 7.71484 70.9883 7.9375 70.7695 8.20312C70.5586 8.46094 70.3828 8.75391 70.2422 9.08203C70.1016 9.41016 69.9883 9.75 69.9023 10.1016C69.8242 10.4453 69.7656 10.793 69.7266 11.1445C69.6875 11.4883 69.6641 11.8125 69.6562 12.1172C69.7812 12.1562 69.9375 12.1992 70.125 12.2461C70.3203 12.293 70.5391 12.3398 70.7812 12.3867C71.0234 12.4258 71.2852 12.4609 71.5664 12.4922C71.8555 12.5156 72.1562 12.5273 72.4688 12.5273C73.1328 12.5273 73.7539 12.4648 74.332 12.3398C74.918 12.2148 75.4648 12.0391 75.9727 11.8125ZM77.168 12.2695C77.1445 12.4727 77.0352 12.6484 76.8398 12.7969C76.6445 12.9453 76.3984 13.0781 76.1016 13.1953C75.8047 13.3047 75.4766 13.3984 75.1172 13.4766C74.7656 13.5469 74.418 13.6055 74.0742 13.6523C73.7305 13.6992 73.4141 13.7344 73.125 13.7578C72.8359 13.7734 72.6094 13.7812 72.4453 13.7812C71.875 13.7812 71.3477 13.7422 70.8633 13.6641C70.3867 13.5859 69.9922 13.5039 69.6797 13.418C69.7266 13.9023 69.8164 14.3789 69.9492 14.8477C70.082 15.3164 70.2734 15.7383 70.5234 16.1133C70.7734 16.4805 71.0859 16.7812 71.4609 17.0156C71.8359 17.2422 72.2891 17.3555 72.8203 17.3555C73.0156 17.3555 73.2383 17.332 73.4883 17.2852C73.7383 17.2305 73.9844 17.1562 74.2266 17.0625C74.4688 16.9609 74.6914 16.8438 74.8945 16.7109C75.0977 16.5703 75.2578 16.4141 75.375 16.2422C75.5078 16.0859 75.668 16.0078 75.8555 16.0078C76.0195 16.0078 76.1641 16.0742 76.2891 16.207C76.4141 16.332 76.4766 16.4727 76.4766 16.6289C76.4766 16.793 76.4258 16.9219 76.3242 17.0156C76.1367 17.3047 75.875 17.5508 75.5391 17.7539C75.2031 17.957 74.8398 18.1211 74.4492 18.2461C74.0586 18.3789 73.6641 18.4727 73.2656 18.5273C72.8672 18.5898 72.5039 18.6211 72.1758 18.6211C71.2383 18.6211 70.3672 18.4531 69.5625 18.1172C68.7578 17.7891 68.0586 17.3359 67.4648 16.7578C66.8711 16.1797 66.4023 15.5 66.0586 14.7188C65.7227 13.9375 65.5547 13.0938 65.5547 12.1875C65.5547 11.1953 65.7031 10.3125 66 9.53906C66.2969 8.75781 66.7188 8.10156 67.2656 7.57031C67.8125 7.03125 68.4766 6.625 69.2578 6.35156C70.0391 6.07031 70.918 5.92969 71.8945 5.92969C72.8164 5.96875 73.6094 6.125 74.2734 6.39844C74.9453 6.67188 75.4961 7.05078 75.9258 7.53516C76.3555 8.01953 76.6719 8.60547 76.875 9.29297C77.0859 9.97266 77.1914 10.7383 77.1914 11.5898C77.1914 11.7852 77.1875 11.9414 77.1797 12.0586C77.1719 12.168 77.168 12.2383 77.168 12.2695ZM90.0703 18.1406C89.6016 18.1406 89.168 18.0664 88.7695 17.918C88.3789 17.7617 88.0156 17.5586 87.6797 17.3086C87.3516 17.0508 87.0508 16.75 86.7773 16.4062C86.5039 16.0625 86.2578 15.6992 86.0391 15.3164C85.8281 14.9336 85.6406 14.543 85.4766 14.1445C85.3203 13.7383 85.1875 13.3438 85.0781 12.9609C84.9688 12.9844 84.8633 13.0039 84.7617 13.0195C84.668 13.0273 84.5742 13.0391 84.4805 13.0547V16.875C84.6836 16.8984 84.8789 16.9219 85.0664 16.9453C85.2617 16.9688 85.4492 16.9922 85.6289 17.0156C85.7773 17.0391 85.8984 17.1094 85.9922 17.2266C86.0859 17.3438 86.1328 17.4727 86.1328 17.6133C86.1328 17.8086 86.0664 17.9609 85.9336 18.0703C85.8008 18.1797 85.668 18.2344 85.5352 18.2344H85.4414C84.9492 18.1641 84.4297 18.0977 83.8828 18.0352C83.3438 17.9805 82.7578 17.9531 82.125 17.9531C81.6641 17.9531 81.1875 17.9727 80.6953 18.0117C80.2031 18.0508 79.6875 18.125 79.1484 18.2344H79.0312C78.8516 18.2344 78.7031 18.168 78.5859 18.0352C78.4688 17.9102 78.4102 17.7695 78.4102 17.6133C78.4102 17.4727 78.457 17.3477 78.5508 17.2383C78.6445 17.1289 78.7656 17.0547 78.9141 17.0156C79.3828 16.9219 79.8555 16.8516 80.332 16.8047V2.58984C79.8398 2.56641 79.4258 2.53906 79.0898 2.50781C78.7539 2.46875 78.5664 2.44922 78.5273 2.44922C78.3711 2.42578 78.2422 2.35547 78.1406 2.23828C78.0469 2.12109 78 1.98438 78 1.82812C78 1.63281 78.0703 1.48438 78.2109 1.38281C78.3516 1.27344 78.4883 1.21875 78.6211 1.21875H78.6914C78.6992 1.21875 78.7891 1.23047 78.9609 1.25391C79.1328 1.26953 79.3555 1.29297 79.6289 1.32422C79.9102 1.34766 80.2266 1.37109 80.5781 1.39453C80.9297 1.41016 81.293 1.41797 81.668 1.41797C82.043 1.41797 82.4102 1.40625 82.7695 1.38281C83.1289 1.35156 83.457 1.29688 83.7539 1.21875H83.8828C84.0625 1.21875 84.2109 1.28125 84.3281 1.40625C84.4453 1.53125 84.5039 1.67188 84.5039 1.82812V11.8359C85.7383 11.5938 86.7969 11.1523 87.6797 10.5117C88.5703 9.86328 89.2891 8.94531 89.8359 7.75781H89.5664C89.1289 7.75781 88.7734 7.74609 88.5 7.72266C88.2266 7.69141 88.0703 7.67578 88.0312 7.67578C87.875 7.65234 87.7461 7.58203 87.6445 7.46484C87.5508 7.34766 87.5039 7.21094 87.5039 7.05469C87.5039 6.85938 87.5742 6.71094 87.7148 6.60938C87.8555 6.50781 87.9922 6.45703 88.125 6.45703H88.1953C88.2109 6.45703 88.3477 6.46875 88.6055 6.49219C88.8633 6.51562 89.1836 6.52734 89.5664 6.52734C89.7852 6.52734 90.0195 6.51953 90.2695 6.50391C90.5195 6.48828 90.7734 6.46484 91.0312 6.43359C91.2891 6.39453 91.5391 6.34375 91.7812 6.28125C92.0312 6.21094 92.2695 6.125 92.4961 6.02344C92.5664 5.97656 92.6445 5.95312 92.7305 5.95312C92.9102 5.95312 93.0586 6.01953 93.1758 6.15234C93.3008 6.27734 93.3633 6.41797 93.3633 6.57422C93.3633 6.69922 93.332 6.8125 93.2695 6.91406C93.207 7.00781 93.1172 7.07812 93 7.125C92.7266 7.25781 92.4375 7.36719 92.1328 7.45312C91.8281 7.53906 91.5156 7.60547 91.1953 7.65234C90.9062 8.44922 90.5547 9.13281 90.1406 9.70312C89.7344 10.2734 89.3047 10.75 88.8516 11.1328C89.0703 11.7734 89.3008 12.3789 89.543 12.9492C89.7852 13.5117 90.0273 14.0039 90.2695 14.4258C90.5195 14.8477 90.7617 15.1836 90.9961 15.4336C91.2383 15.6758 91.4648 15.7969 91.6758 15.7969C91.8555 15.7969 91.9922 15.7305 92.0859 15.5977C92.1797 15.457 92.2422 15.2969 92.2734 15.1172C92.3125 14.9375 92.332 14.7539 92.332 14.5664C92.332 14.3789 92.332 14.2344 92.332 14.1328C92.332 13.8906 92.3203 13.6562 92.2969 13.4297C92.2812 13.2031 92.2617 13.0039 92.2383 12.832C92.2148 12.6602 92.1914 12.5234 92.168 12.4219C92.1523 12.3203 92.1406 12.2695 92.1328 12.2695V12.1172C92.1328 11.9531 92.1914 11.8086 92.3086 11.6836C92.4336 11.5586 92.5742 11.4961 92.7305 11.4961C92.8789 11.4961 93.0078 11.5391 93.1172 11.625C93.2344 11.7109 93.3086 11.8281 93.3398 11.9766C93.3477 12 93.3633 12.0742 93.3867 12.1992C93.4102 12.3164 93.4336 12.4688 93.457 12.6562C93.4883 12.8438 93.5156 13.0625 93.5391 13.3125C93.5625 13.5547 93.5742 13.8125 93.5742 14.0859C93.5742 14.6562 93.5078 15.1914 93.375 15.6914C93.2422 16.1836 93.0312 16.6133 92.7422 16.9805C92.4609 17.3398 92.0977 17.625 91.6523 17.8359C91.2148 18.0391 90.6875 18.1406 90.0703 18.1406ZM106.887 12.2109C106.887 11.8281 106.844 11.4414 106.758 11.0508C106.672 10.6602 106.547 10.2812 106.383 9.91406C106.219 9.54688 106.02 9.20312 105.785 8.88281C105.551 8.5625 105.285 8.28516 104.988 8.05078C104.699 7.80859 104.379 7.62109 104.027 7.48828C103.684 7.34766 103.316 7.27734 102.926 7.27734C102.488 7.27734 102.105 7.35156 101.777 7.5C101.457 7.64062 101.176 7.83594 100.934 8.08594C100.691 8.32812 100.492 8.60938 100.336 8.92969C100.18 9.25 100.055 9.58984 99.9609 9.94922C99.8672 10.3086 99.8008 10.6719 99.7617 11.0391C99.7227 11.4062 99.7031 11.7578 99.7031 12.0938C99.7031 12.4375 99.7188 12.8047 99.75 13.1953C99.7812 13.5781 99.8359 13.9609 99.9141 14.3438C99.9922 14.7188 100.098 15.082 100.23 15.4336C100.363 15.7852 100.535 16.0938 100.746 16.3594C100.957 16.625 101.211 16.8359 101.508 16.9922C101.812 17.1484 102.172 17.2266 102.586 17.2266C103.266 17.2266 103.871 17.0859 104.402 16.8047C104.941 16.5156 105.395 16.1367 105.762 15.668C106.129 15.1992 106.406 14.6641 106.594 14.0625C106.789 13.4609 106.887 12.8438 106.887 12.2109ZM108.105 12.2109C108.105 13.1484 107.938 14.0078 107.602 14.7891C107.266 15.5703 106.812 16.2422 106.242 16.8047C105.672 17.3594 105.004 17.793 104.238 18.1055C103.48 18.418 102.68 18.5742 101.836 18.5742C100.883 18.5742 100.02 18.4219 99.2461 18.1172C98.4805 17.8203 97.8242 17.3945 97.2773 16.8398C96.7305 16.2852 96.3086 15.6172 96.0117 14.8359C95.7227 14.0547 95.5781 13.1797 95.5781 12.2109C95.5781 11.2891 95.7383 10.4375 96.0586 9.65625C96.3789 8.875 96.8203 8.20312 97.3828 7.64062C97.9453 7.07031 98.6055 6.62891 99.3633 6.31641C100.129 5.99609 100.953 5.83594 101.836 5.83594C102.758 5.83594 103.602 6.00781 104.367 6.35156C105.141 6.6875 105.805 7.14844 106.359 7.73438C106.914 8.3125 107.344 8.98828 107.648 9.76172C107.953 10.5352 108.105 11.3516 108.105 12.2109ZM116.59 18.1641H116.473C116.16 18.1094 115.875 18.0625 115.617 18.0234C115.359 17.9844 115.113 17.957 114.879 17.9414C114.645 17.918 114.406 17.9023 114.164 17.8945C113.93 17.8867 113.676 17.8828 113.402 17.8828C112.848 17.8828 112.309 17.9062 111.785 17.9531C111.262 17.9922 110.688 18.0703 110.062 18.1875H109.945C109.75 18.1875 109.602 18.125 109.5 18C109.398 17.8828 109.348 17.7383 109.348 17.5664C109.348 17.4258 109.391 17.3008 109.477 17.1914C109.562 17.082 109.68 17.0078 109.828 16.9688C110.117 16.9219 110.379 16.8867 110.613 16.8633C110.848 16.832 111.098 16.8047 111.363 16.7812V2.47266C110.871 2.43359 110.516 2.39844 110.297 2.36719C110.086 2.32812 109.961 2.30859 109.922 2.30859C109.766 2.28516 109.637 2.21484 109.535 2.09766C109.441 1.98047 109.395 1.84766 109.395 1.69922C109.395 1.49609 109.465 1.34375 109.605 1.24219C109.746 1.13281 109.883 1.07812 110.016 1.07812H110.086C110.094 1.07812 110.164 1.08984 110.297 1.11328C110.43 1.12891 110.609 1.15234 110.836 1.18359C111.07 1.20703 111.344 1.23047 111.656 1.25391C111.977 1.26953 112.324 1.27734 112.699 1.27734C113.074 1.27734 113.441 1.26562 113.801 1.24219C114.16 1.21094 114.488 1.16406 114.785 1.10156C114.809 1.08594 114.852 1.07812 114.914 1.07812C115.094 1.07812 115.242 1.14453 115.359 1.27734C115.477 1.40234 115.535 1.54297 115.535 1.69922L115.512 16.7812C115.645 16.7969 115.754 16.8125 115.84 16.8281C115.934 16.8359 116.02 16.8477 116.098 16.8633C116.184 16.8711 116.27 16.8828 116.355 16.8984C116.449 16.9062 116.566 16.9219 116.707 16.9453C116.855 16.9844 116.977 17.0586 117.07 17.168C117.164 17.2773 117.211 17.4023 117.211 17.543C117.211 17.7227 117.145 17.8711 117.012 17.9883C116.887 18.1055 116.746 18.1641 116.59 18.1641ZM129.059 11.8125V11.6133C129.059 11.0273 128.996 10.4844 128.871 9.98438C128.746 9.48438 128.547 9.04297 128.273 8.66016C128.008 8.26953 127.664 7.94922 127.242 7.69922C126.82 7.44922 126.312 7.28125 125.719 7.19531C125.305 7.24219 124.945 7.35547 124.641 7.53516C124.336 7.71484 124.074 7.9375 123.855 8.20312C123.645 8.46094 123.469 8.75391 123.328 9.08203C123.188 9.41016 123.074 9.75 122.988 10.1016C122.91 10.4453 122.852 10.793 122.812 11.1445C122.773 11.4883 122.75 11.8125 122.742 12.1172C122.867 12.1562 123.023 12.1992 123.211 12.2461C123.406 12.293 123.625 12.3398 123.867 12.3867C124.109 12.4258 124.371 12.4609 124.652 12.4922C124.941 12.5156 125.242 12.5273 125.555 12.5273C126.219 12.5273 126.84 12.4648 127.418 12.3398C128.004 12.2148 128.551 12.0391 129.059 11.8125ZM130.254 12.2695C130.23 12.4727 130.121 12.6484 129.926 12.7969C129.73 12.9453 129.484 13.0781 129.188 13.1953C128.891 13.3047 128.562 13.3984 128.203 13.4766C127.852 13.5469 127.504 13.6055 127.16 13.6523C126.816 13.6992 126.5 13.7344 126.211 13.7578C125.922 13.7734 125.695 13.7812 125.531 13.7812C124.961 13.7812 124.434 13.7422 123.949 13.6641C123.473 13.5859 123.078 13.5039 122.766 13.418C122.812 13.9023 122.902 14.3789 123.035 14.8477C123.168 15.3164 123.359 15.7383 123.609 16.1133C123.859 16.4805 124.172 16.7812 124.547 17.0156C124.922 17.2422 125.375 17.3555 125.906 17.3555C126.102 17.3555 126.324 17.332 126.574 17.2852C126.824 17.2305 127.07 17.1562 127.312 17.0625C127.555 16.9609 127.777 16.8438 127.98 16.7109C128.184 16.5703 128.344 16.4141 128.461 16.2422C128.594 16.0859 128.754 16.0078 128.941 16.0078C129.105 16.0078 129.25 16.0742 129.375 16.207C129.5 16.332 129.562 16.4727 129.562 16.6289C129.562 16.793 129.512 16.9219 129.41 17.0156C129.223 17.3047 128.961 17.5508 128.625 17.7539C128.289 17.957 127.926 18.1211 127.535 18.2461C127.145 18.3789 126.75 18.4727 126.352 18.5273C125.953 18.5898 125.59 18.6211 125.262 18.6211C124.324 18.6211 123.453 18.4531 122.648 18.1172C121.844 17.7891 121.145 17.3359 120.551 16.7578C119.957 16.1797 119.488 15.5 119.145 14.7188C118.809 13.9375 118.641 13.0938 118.641 12.1875C118.641 11.1953 118.789 10.3125 119.086 9.53906C119.383 8.75781 119.805 8.10156 120.352 7.57031C120.898 7.03125 121.562 6.625 122.344 6.35156C123.125 6.07031 124.004 5.92969 124.98 5.92969C125.902 5.96875 126.695 6.125 127.359 6.39844C128.031 6.67188 128.582 7.05078 129.012 7.53516C129.441 8.01953 129.758 8.60547 129.961 9.29297C130.172 9.97266 130.277 10.7383 130.277 11.5898C130.277 11.7852 130.273 11.9414 130.266 12.0586C130.258 12.168 130.254 12.2383 130.254 12.2695Z" fill="white"/>
</svg>
