<?xml version="1.0" encoding="UTF-8"?>
<svg xmlns="http://www.w3.org/2000/svg" xmlns:xlink="http://www.w3.org/1999/xlink" width="20px" height="20px" viewBox="0 0 20 20" version="1.1">
<g id="surface1">
<path style=" stroke:none;fill-rule:nonzero;fill:rgb(27.843137%,69.019608%,82.745098%);fill-opacity:1;" d="M 20 10 C 20 15.523438 15.523438 20 10 20 C 4.476562 20 0 15.523438 0 10 C 0 4.476562 4.476562 0 10 0 C 15.523438 0 20 4.476562 20 10 Z M 20 10 "/>
<path style=" stroke:none;fill-rule:nonzero;fill:rgb(19.607843%,59.607843%,72.941176%);fill-opacity:1;" d="M 1.332031 10 C 1.332031 4.703125 5.453125 0.367188 10.667969 0.0234375 C 10.445312 0.0078125 10.222656 0 10 0 C 4.476562 0 0 4.476562 0 10 C 0 15.523438 4.476562 20 10 20 C 10.222656 20 10.445312 19.992188 10.667969 19.976562 C 5.453125 19.632812 1.332031 15.296875 1.332031 10 Z M 1.332031 10 "/>
<path style=" stroke:none;fill-rule:nonzero;fill:rgb(89.803922%,89.803922%,89.803922%);fill-opacity:1;" d="M 14.855469 4.261719 C 14.757812 4.195312 14.632812 4.183594 14.527344 4.234375 L 3.78125 9.234375 C 3.589844 9.324219 3.472656 9.515625 3.476562 9.722656 C 3.480469 9.929688 3.605469 10.113281 3.792969 10.191406 L 13.699219 14.507812 C 14.03125 14.660156 14.417969 14.421875 14.441406 14.0625 L 15 4.554688 C 15.007812 4.4375 14.949219 4.324219 14.855469 4.261719 Z M 14.855469 4.261719 "/>
<path style=" stroke:none;fill-rule:nonzero;fill:rgb(80%,80%,80%);fill-opacity:1;" d="M 6.703125 11.460938 L 7.375 15.9375 L 14.8125 4.234375 Z M 6.703125 11.460938 "/>
<path style=" stroke:none;fill-rule:nonzero;fill:rgb(100%,100%,100%);fill-opacity:1;" d="M 14.527344 4.234375 L 3.78125 9.234375 C 3.59375 9.320312 3.476562 9.515625 3.476562 9.71875 C 3.480469 9.921875 3.605469 10.113281 3.792969 10.191406 L 6.703125 11.460938 L 14.8125 4.234375 C 14.722656 4.191406 14.617188 4.191406 14.527344 4.234375 Z M 14.527344 4.234375 "/>
<path style=" stroke:none;fill-rule:nonzero;fill:rgb(89.803922%,89.803922%,89.803922%);fill-opacity:1;" d="M 8.257812 12.136719 L 7.375 15.9375 L 14.8125 4.234375 Z M 8.257812 12.136719 "/>
<path style=" stroke:none;fill-rule:nonzero;fill:rgb(100%,100%,100%);fill-opacity:1;" d="M 14.855469 4.261719 C 14.839844 4.25 14.824219 4.242188 14.8125 4.234375 L 8.257812 12.136719 L 13.699219 14.507812 C 14.03125 14.660156 14.417969 14.421875 14.441406 14.0625 L 15 4.554688 C 15.007812 4.4375 14.949219 4.324219 14.855469 4.261719 Z M 14.855469 4.261719 "/>
</g>
</svg>
