<?xml version="1.0" encoding="UTF-8"?>
<svg xmlns="http://www.w3.org/2000/svg" xmlns:xlink="http://www.w3.org/1999/xlink" width="20px" height="20px" viewBox="0 0 20 20" version="1.1">
<g id="surface1">
<path style=" stroke:none;fill-rule:nonzero;fill:rgb(32.156863%,50.588235%,72.156863%);fill-opacity:1;" d="M 3 0 L 17 0 C 18.65625 0 20 1.34375 20 3 L 20 17 C 20 18.65625 18.65625 20 17 20 L 3 20 C 1.34375 20 0 18.65625 0 17 L 0 3 C 0 1.34375 1.34375 0 3 0 Z M 3 0 "/>
<path style=" stroke:none;fill-rule:nonzero;fill:rgb(100%,100%,100%);fill-opacity:1;" d="M 10.703125 14.179688 C 10.898438 14.140625 11.25 14.0625 11.25 13.59375 C 11.25 13.59375 11.210938 12.421875 11.757812 12.265625 C 12.304688 12.109375 13.007812 13.398438 13.75 13.90625 C 14.296875 14.257812 14.726562 14.21875 14.726562 14.21875 L 16.71875 14.179688 C 16.71875 14.179688 17.734375 14.101562 17.265625 13.28125 C 17.226562 13.203125 16.914062 12.695312 15.742188 11.640625 C 14.53125 10.46875 14.726562 10.664062 16.171875 8.671875 C 17.070312 7.460938 17.460938 6.71875 17.34375 6.445312 C 17.1875 6.171875 16.5625 6.210938 16.5625 6.210938 L 14.335938 6.210938 C 14.101562 6.210938 13.984375 6.25 13.867188 6.445312 C 13.867188 6.445312 13.515625 7.421875 13.046875 8.203125 C 12.070312 9.882812 11.679688 9.960938 11.484375 9.84375 C 11.132812 9.648438 11.210938 8.90625 11.210938 8.398438 C 11.210938 6.640625 11.484375 6.015625 10.703125 5.859375 C 10.195312 5.78125 8.398438 5.703125 7.851562 5.976562 C 7.578125 6.132812 7.421875 6.40625 7.539062 6.445312 C 7.65625 6.445312 8.007812 6.484375 8.203125 6.71875 C 8.515625 7.226562 8.554688 9.648438 8.125 9.882812 C 7.539062 10.3125 6.054688 7.460938 5.703125 6.523438 C 5.625 6.289062 5.507812 6.25 5.234375 6.171875 L 3.085938 6.171875 C 2.851562 6.171875 2.5 6.210938 2.65625 6.679688 C 3.710938 8.867188 5.898438 14.21875 9.84375 14.179688 Z M 10.703125 14.179688 "/>
</g>
</svg>
