<?xml version="1.0" encoding="UTF-8"?>
<svg xmlns="http://www.w3.org/2000/svg" xmlns:xlink="http://www.w3.org/1999/xlink" width="20px" height="20px" viewBox="0 0 20 20" version="1.1">
<g id="surface1">
<path style=" stroke:none;fill-rule:nonzero;fill:rgb(96.470588%,10.980392%,5.098039%);fill-opacity:1;" d="M 15.847656 2.921875 L 4.152344 2.921875 C 1.859375 2.921875 0 4.785156 0 7.078125 L 0 12.921875 C 0 15.214844 1.859375 17.078125 4.152344 17.078125 L 15.847656 17.078125 C 18.140625 17.078125 20 15.214844 20 12.921875 L 20 7.078125 C 20 4.785156 18.140625 2.921875 15.847656 2.921875 Z M 13.035156 10.285156 L 7.566406 12.894531 C 7.421875 12.960938 7.253906 12.855469 7.253906 12.695312 L 7.253906 7.316406 C 7.253906 7.152344 7.425781 7.046875 7.574219 7.117188 L 13.042969 9.890625 C 13.203125 9.972656 13.203125 10.207031 13.035156 10.285156 Z M 13.035156 10.285156 "/>
</g>
</svg>
